HIERARCHY
ROOT Hips
{
	OFFSET -0.0000 -0.0000 0.0000
	CHANNELS 6 Xposition Yposition Zposition Zrotation Xrotation Yrotation
	JOINT LeftUpperLeg
	{
		OFFSET -5.2299 2.7607 -9.3936
		CHANNELS 3 Zrotation Xrotation Yrotation
		JOINT LeftLowerLeg
		{
			OFFSET -5.8867 0.6557 -41.6441
			CHANNELS 3 Zrotation Xrotation Yrotation
			JOINT LeftFoot
			{
				OFFSET 4.1738 2.9512 -43.7584
				CHANNELS 3 Zrotation Xrotation Yrotation
				JOINT LeftToe
				{
					OFFSET -4.9294 -12.6259 -6.5279
					CHANNELS 3 Zrotation Xrotation Yrotation
					End Site
					{
						OFFSET 0.0000 0.0000 5.0000
					}
				}
			}
		}
	}
	JOINT RightUpperLeg
	{
		OFFSET 5.7193 2.2218 -10.6548
		CHANNELS 3 Zrotation Xrotation Yrotation
		JOINT RightLowerLeg
		{
			OFFSET 4.8074 1.4061 -39.7560
			CHANNELS 3 Zrotation Xrotation Yrotation
			JOINT RightFoot
			{
				OFFSET -1.4489 1.8030 -44.6852
				CHANNELS 3 Zrotation Xrotation Yrotation
				JOINT RightToe
				{
					OFFSET 4.0575 -12.7076 -6.5287
					CHANNELS 3 Zrotation Xrotation Yrotation
					End Site
					{
						OFFSET 0.0000 0.0000 5.0000
					}
				}
			}
		}
	}
	JOINT Spine
	{
		OFFSET -0.0000 -0.0000 11.2930
		CHANNELS 3 Zrotation Xrotation Yrotation
		JOINT Spine1
		{
			OFFSET -0.0000 -0.0000 14.5636
			CHANNELS 3 Zrotation Xrotation Yrotation
			JOINT Spine2
			{
				OFFSET -0.0000 -0.0000 5.6082
				CHANNELS 3 Zrotation Xrotation Yrotation
				JOINT Neck
				{
					OFFSET -0.0000 -0.0000 17.1365
					CHANNELS 3 Zrotation Xrotation Yrotation
					JOINT Head
					{
						OFFSET -2.4654 -2.4463 17.5391
						CHANNELS 3 Zrotation Xrotation Yrotation
						End Site
						{
							OFFSET 0.0000 0.0000 5.0000
						}
					}
				}
				JOINT LeftShoulder
				{
					OFFSET -4.7725 0.8375 8.7643
					CHANNELS 3 Zrotation Xrotation Yrotation
					JOINT LeftUpperArm
					{
						OFFSET -12.6285 1.3885 5.7680
						CHANNELS 3 Zrotation Xrotation Yrotation
						JOINT LeftLowerArm
						{
							OFFSET -27.2907 3.9094 -6.9853
							CHANNELS 3 Zrotation Xrotation Yrotation
							JOINT LeftHand
							{
								OFFSET -27.6174 0.2478 2.1254
								CHANNELS 3 Zrotation Xrotation Yrotation
								End Site
								{
									OFFSET 0.0000 0.0000 5.0000
								}
							}
						}
					}
				}
				JOINT RightShoulder
				{
					OFFSET 4.6636 1.4864 8.6612
					CHANNELS 3 Zrotation Xrotation Yrotation
					JOINT RightUpperArm
					{
						OFFSET 10.9342 0.9118 5.3674
						CHANNELS 3 Zrotation Xrotation Yrotation
						JOINT RightLowerArm
						{
							OFFSET 29.2029 2.4565 -3.5440
							CHANNELS 3 Zrotation Xrotation Yrotation
							JOINT RightHand
							{
								OFFSET 27.1879 1.6445 -0.4835
								CHANNELS 3 Zrotation Xrotation Yrotation
								End Site
								{
									OFFSET 0.0000 0.0000 5.0000
								}
							}
						}
					}
				}
			}
		}
	}
}
MOTION
Frames: 16
Frame Time: 0.033333
27.155130 -174.418488 98.479820 5.377805 -3.930298 -0.167439 3.500911 23.024141 -1.110746 0.210780 14.147446 -0.203827 3.926941 9.059302 -5.052441 4.444160 -20.887929 -8.252060 -5.245824 -27.139372 -1.151910 -0.275608 12.475693 2.374957 1.636893 24.930408 11.991621 -4.594380 -6.414008 -6.297811 2.973852 12.708206 -7.372216 6.734069 -1.532709 9.900184 -4.648651 6.101836 -3.534508 -1.002563 -17.972200 1.657369 0.146850 2.810757 0.108661 7.991702 1.400931 -3.193725 12.712831 -13.236459 -58.874640 21.467982 -3.632056 -5.027451 3.624021 -3.157974 -5.702907 -0.752355 -3.387884 6.622749 -37.660323 6.288670 68.569264 -16.832579 0.595841 3.027676 5.067777 -18.061937 8.637035
28.344954 -178.922272 99.002808 5.035318 -3.001403 -2.450575 3.271127 17.301204 2.876766 0.891477 24.230073 -1.349074 3.618963 20.754430 -7.515787 5.809652 -25.253647 -7.046149 -3.762244 -26.407913 2.031670 0.397412 14.212053 2.593250 1.137905 22.788491 10.869779 -3.916198 -4.697703 -6.368670 2.973136 11.748584 -3.155011 5.538392 -2.576815 6.993261 -4.204709 6.516521 -2.103309 -1.523850 -18.154966 1.265747 0.092747 2.949084 0.084472 7.816526 0.749768 -2.370229 11.892104 -12.338746 -61.178086 20.161443 -3.377124 -5.301797 3.153523 -4.379841 -5.776881 -1.076821 -3.553667 4.957880 -38.320326 6.054568 69.305629 -17.278787 0.623295 3.458252 5.258688 -16.588827 8.243335
29.314053 -183.116043 99.567291 4.882438 -2.139737 -4.453641 4.121371 9.901308 6.339279 1.183828 35.239266 -2.137731 4.609214 32.291976 -12.389888 4.679017 -17.877175 -5.310380 -2.761952 -25.435016 4.806680 1.011657 15.999853 2.832127 1.052015 17.689882 8.907433 -3.793218 -3.879384 -5.435540 2.688302 10.965352 1.165143 4.066861 -3.597012 3.508219 -3.778605 7.399508 -0.817188 -1.648744 -18.882949 1.246868 -0.058793 2.733627 0.109913 7.921367 -0.033041 -2.105715 11.675772 -11.457684 -62.232884 19.533345 -3.075915 -5.493592 2.912388 -5.089431 -6.242011 -1.434119 -3.855240 4.116675 -39.101649 5.987765 69.122936 -18.148376 0.789825 3.501156 5.409159 -15.163310 8.377874
30.089199 -187.012405 100.005890 5.094319 -1.614273 -5.977503 5.230720 2.316946 8.766359 1.575014 45.209244 -2.564209 6.428713 39.227049 -16.791877 1.422153 -7.672015 -4.191875 -2.294959 -23.792924 6.983179 1.601841 16.823441 2.875869 0.590661 13.345747 7.396277 -3.604142 -3.194201 -4.393849 1.897150 10.572256 5.114309 2.591411 -4.300393 -0.033116 -3.276728 8.340230 0.132378 -1.829103 -19.703090 1.584315 0.202750 2.004902 -0.129303 7.856257 -0.600809 -2.152004 11.828028 -10.911271 -62.458572 19.424118 -2.670419 -5.600029 3.021985 -5.610879 -6.746958 -1.901692 -4.180441 3.918359 -40.177051 5.922919 67.914148 -19.172029 0.965755 3.437412 5.441111 -14.069641 8.371929
30.753199 -190.711090 100.470390 5.932303 -1.574861 -6.987204 5.204826 -4.966955 10.535451 3.800035 54.042094 -4.905505 4.893644 36.357013 -15.315317 1.240320 -6.831694 -3.942117 -2.950969 -21.391907 8.470144 2.194524 16.739778 2.797807 -0.013538 9.943159 6.157550 -3.350413 -2.695981 -3.292769 0.619450 10.568420 8.272471 1.188797 -4.410766 -3.183061 -2.725305 8.664137 0.879377 -2.290117 -19.962450 1.797401 0.729156 1.077395 -0.316088 7.439765 -0.860127 -2.518920 12.140636 -10.416525 -62.357840 19.327179 -2.304771 -5.713574 3.338971 -5.791919 -6.900572 -2.415637 -4.225776 3.876497 -41.555256 5.569788 65.920598 -19.922585 1.080210 3.359571 5.525590 -13.146102 8.249573
31.363621 -194.259888 100.937607 7.188247 -2.018034 -7.755594 3.954223 -11.593648 12.006815 6.163717 59.320174 -7.401205 1.873736 32.232552 -12.157137 1.719040 -7.500734 -3.604423 -4.326733 -18.131855 9.716386 2.780284 15.605880 2.580988 -0.666432 7.286116 4.923469 -3.141474 -2.308783 -2.093322 -1.075085 10.861739 10.952171 -0.023119 -4.128452 -5.901949 -2.169997 8.615543 1.404195 -2.920190 -19.793688 1.849545 1.447297 0.500199 -0.463758 6.881613 -0.991171 -2.728614 12.389720 -9.781815 -62.421193 19.097320 -1.968544 -5.798003 3.511205 -5.641202 -6.764157 -2.920357 -4.132138 3.597754 -43.028831 4.656072 63.736697 -20.118556 1.027229 3.262436 5.611366 -12.008202 8.158060
31.934088 -197.713058 101.382187 8.622595 -2.795304 -8.461346 1.786273 -17.355382 13.330906 7.318325 60.810895 -8.494428 -1.318596 29.140519 -9.248674 2.226109 -8.189676 -3.126163 -6.160505 -14.090326 11.013953 3.318272 13.334497 2.201903 -1.333560 5.338767 3.671510 -3.002695 -2.136939 -0.733266 -2.951006 11.298364 13.407276 -1.092852 -3.464349 -8.249769 -1.603270 8.172783 1.722189 -3.615805 -19.281275 1.761180 2.126001 0.165711 -0.527144 6.232646 -0.962024 -2.840652 12.504312 -8.982107 -62.596105 18.826735 -1.746497 -5.858539 3.411193 -5.087461 -6.500556 -3.396734 -3.915147 3.117460 -44.236028 3.243091 61.536371 -20.085023 0.846495 3.166711 5.537329 -10.615459 8.022681
32.453339 -201.198822 101.754448 10.058030 -3.739551 -8.997620 -0.667677 -22.053536 14.271688 7.030627 59.007922 -7.962748 -3.432045 26.622160 -7.575193 2.689093 -8.731889 -2.607258 -8.073747 -9.546734 12.228860 3.758209 10.416421 1.773800 -2.222879 3.830605 2.515502 -2.869095 -2.172073 0.737613 -4.690686 11.864092 15.536302 -2.080615 -2.591628 -10.284655 -0.991626 7.427426 1.887018 -4.311446 -18.564606 1.591474 2.796804 -0.120105 -0.546250 5.483151 -0.736878 -3.012202 12.467103 -8.020346 -62.701849 18.673952 -1.628278 -5.927585 3.171314 -4.394089 -6.208696 -3.935901 -3.631426 2.477596 -45.046099 1.475584 59.475396 -20.122036 0.576257 3.107506 5.258289 -9.304748 7.840804
32.907192 -204.779144 102.031433 11.377780 -4.630576 -9.218714 -2.805721 -25.527379 14.518692 5.768981 54.187146 -6.312602 -3.954533 24.337213 -7.523205 3.123963 -9.250114 -1.966874 -9.731208 -4.921244 13.069454 4.054219 7.499527 1.458007 -3.325930 2.568081 1.597448 -2.707017 -2.280069 2.152478 -6.063591 12.542360 17.146330 -3.049284 -1.804349 -12.071575 -0.369494 6.684231 2.035423 -4.951314 -17.862637 1.346709 3.500980 -0.407037 -0.550859 4.738202 -0.484264 -3.342125 12.415045 -6.845186 -62.672519 18.660334 -1.579840 -6.046111 3.032583 -3.605749 -5.931826 -4.519399 -3.466535 1.698544 -45.556123 -0.431338 57.746499 -20.437886 0.261305 3.033939 4.855380 -8.524051 7.641032
33.280052 -208.470840 102.154282 12.647971 -5.299664 -9.197708 -4.477707 -27.721231 14.176321 4.102190 46.577448 -4.103366 -3.604439 22.711293 -8.734950 3.606437 -9.843367 -0.926555 -11.225398 -0.754304 13.474672 4.179081 5.243156 1.357784 -4.269387 1.213291 0.809763 -2.563842 -2.329539 3.379682 -7.121116 13.247797 18.278050 -3.990535 -1.354648 -13.618089 0.169822 6.261026 2.229279 -5.494188 -17.339672 0.991734 4.164024 -0.812672 -0.602054 4.097034 -0.345419 -3.809082 12.455168 -5.491226 -62.620454 18.666499 -1.547042 -6.199044 3.158687 -2.917611 -5.729560 -5.018660 -3.413297 0.928953 -46.059602 -2.207574 56.295093 -21.219245 -0.035522 2.816537 4.255868 -8.687972 7.348877
33.560333 -212.161926 102.098129 13.901170 -5.722601 -9.115933 -5.569872 -28.526365 13.587763 2.524423 36.318915 -1.915513 -3.575612 22.658103 -10.160170 4.274000 -10.322871 0.600988 -12.667565 2.674918 13.618281 4.157099 3.863472 1.441008 -5.016133 -0.302069 -0.071631 -2.471081 -2.249945 4.414283 -8.002523 13.835262 19.144959 -4.810993 -1.163292 -14.956392 0.580612 6.151805 2.521592 -5.914750 -16.964581 0.507682 4.632710 -1.378068 -0.696179 3.571041 -0.343314 -4.315740 12.670763 -4.096316 -62.778661 18.492821 -1.514448 -6.328403 3.379559 -2.337587 -5.576897 -5.316201 -3.405215 0.299878 -46.749388 -3.653915 55.055093 -22.473306 -0.277097 2.443708 3.534207 -9.732800 6.867266
33.779301 -215.798111 101.844528 15.163604 -6.068298 -9.196135 -5.958590 -27.705654 13.212313 1.365260 23.925484 -0.067923 -3.999505 23.820968 -11.709305 5.195278 -10.537465 2.502828 -13.981947 5.521540 13.835882 4.019744 3.316426 1.685535 -5.772305 -1.989582 -1.333822 -2.336756 -2.023389 5.389762 -8.775957 14.244940 20.120755 -5.483890 -1.074665 -16.283364 0.897679 6.271019 2.991906 -6.346784 -16.596654 -0.072399 4.756976 -2.142913 -0.783667 3.088482 -0.444694 -4.738135 13.096979 -2.713178 -63.331800 17.997102 -1.483243 -6.412361 3.417501 -1.657615 -5.547528 -5.489800 -3.440918 -0.264428 -47.526760 -4.774413 54.207086 -24.091442 -0.514516 1.951144 2.776789 -11.078851 6.276209
33.979946 -219.531876 101.366188 16.408943 -6.452318 -9.621672 -5.819779 -25.398992 13.460330 0.689599 10.423882 1.451735 -4.490645 24.588967 -14.064171 6.385830 -10.438665 4.283853 -15.229815 8.154913 14.140861 3.745669 3.296992 2.099097 -6.479222 -3.946510 -2.683764 -2.073835 -1.662825 6.460834 -9.397914 14.391125 21.500273 -5.979361 -1.023360 -17.761971 1.113665 6.606057 3.684019 -6.949040 -16.150607 -0.698071 4.655747 -2.966467 -0.846325 2.595168 -0.709665 -4.895578 13.414131 -1.320408 -64.417719 17.199450 -1.454636 -6.553085 3.213209 -0.563966 -5.795137 -5.696213 -3.523158 -0.954266 -48.136338 -5.678213 53.988959 -26.092537 -0.824839 1.495777 1.947001 -12.253342 5.798701
34.193226 -223.551437 100.628281 17.520103 -6.773601 -10.289778 -5.575065 -22.734246 14.125506 0.520135 -2.197317 2.699919 -5.669294 23.948321 -17.066172 7.700194 -10.401459 5.128295 -16.520543 10.821108 14.743367 3.335288 3.298389 2.536795 -7.083550 -6.110750 -4.180214 -1.761729 -1.393106 7.501349 -9.747811 14.181664 23.078354 -6.266305 -1.000146 -19.251599 1.183452 7.066046 4.462131 -7.548144 -15.643072 -1.254996 4.609605 -3.417063 -0.859325 2.049196 -0.957681 -4.896953 13.570429 -0.021234 -65.730188 16.266294 -1.411359 -6.794080 3.125095 0.687709 -6.361729 -5.994627 -3.643477 -1.733174 -48.179204 -6.468257 54.546841 -28.401959 -1.101300 1.216612 0.840556 -13.220247 5.497947
34.384876 -227.790024 99.761971 18.293977 -6.841441 -10.855217 -5.348782 -21.826335 14.672463 0.633581 -9.469466 3.415783 -7.893007 21.960926 -18.931427 8.424768 -10.814507 4.409863 -17.632787 13.605226 15.279429 2.964702 3.002950 2.738087 -7.609768 -8.019674 -5.284367 -1.631946 -1.601218 8.135923 -9.755878 13.805407 24.286840 -6.376557 -1.024892 -20.327145 1.149070 7.499093 4.987018 -7.892037 -15.508799 -1.712456 4.705828 -3.135552 -0.778966 1.492389 -1.242061 -5.400213 13.783229 1.091819 -66.432767 15.087126 -1.376145 -6.995324 2.784587 1.594791 -7.291379 -6.369835 -3.838944 -1.959174 -47.286253 -6.828220 55.521667 -30.743167 -1.066442 1.078494 -0.389549 -13.866750 5.530771
34.532200 -232.239410 99.040131 18.729670 -6.701085 -11.221104 -5.757155 -22.837418 14.771560 0.757390 -10.097883 3.412674 -9.753258 20.237089 -19.363711 8.585628 -11.213220 3.521572 -18.617469 16.579535 15.865678 2.629227 2.289187 2.390161 -7.712887 -8.564427 -5.361754 -1.736724 -2.100154 8.230652 -9.691528 13.568849 25.087960 -6.610824 -1.084994 -21.057637 1.206043 7.878733 5.190300 -7.826262 -15.921532 -1.981622 4.184114 -2.779407 -0.860637 0.986996 -1.532188 -6.329221 13.948377 1.736983 -66.407891 13.633177 -1.106256 -6.986144 1.828612 1.887442 -8.537703 -6.798747 -3.948756 -1.602364 -45.804914 -6.680587 56.582329 -32.606935 -0.994024 0.947188 -1.091864 -13.921955 5.405244
